HIERARCHY
ROOT root
{
  OFFSET 0 95.9893 0
  CHANNELS 6 Xposition Yposition Zposition Zrotation Xrotation Yrotation
  JOINT torso_1
  {
    OFFSET 0 5.22546 -1.18466
    CHANNELS 6 Xposition Yposition Zposition Zrotation Xrotation Yrotation
    JOINT torso_2
    {
      OFFSET 0 5.77894 1.10239
      CHANNELS 6 Xposition Yposition Zposition Zrotation Xrotation Yrotation
      JOINT torso_3
      {
        OFFSET -1.0557e-17 6.16289 0.118334
        CHANNELS 6 Xposition Yposition Zposition Zrotation Xrotation Yrotation
        JOINT torso_4
        {
          OFFSET -1.13649e-17 6.69386 -0.456341
          CHANNELS 6 Xposition Yposition Zposition Zrotation Xrotation Yrotation
          JOINT torso_5
          {
            OFFSET -2.02997e-17 7.82529 -1.54945
            CHANNELS 6 Xposition Yposition Zposition Zrotation Xrotation Yrotation
            JOINT torso_6
            {
              OFFSET -2.60628e-17 9.77186 -0.940923
              CHANNELS 6 Xposition Yposition Zposition Zrotation Xrotation Yrotation
              JOINT torso_7
              {
                OFFSET -2.98794e-17 10.8563 1.62248
                CHANNELS 6 Xposition Yposition Zposition Zrotation Xrotation Yrotation
                JOINT neck_1
                {
                  OFFSET -1.32927e-17 4.92478 0.736013
                  CHANNELS 6 Xposition Yposition Zposition Zrotation Xrotation Yrotation
                  JOINT neck_2
                  {
                    OFFSET -1.86396e-17 4.96043 0.433981
                    CHANNELS 6 Xposition Yposition Zposition Zrotation Xrotation Yrotation
                    JOINT head
                    {
                      OFFSET -2.06766e-17 4.97002 0.787173
                      CHANNELS 6 Xposition Yposition Zposition Zrotation Xrotation Yrotation
                      End Site
                      {
                        OFFSET 0 0.1 0
                      }
                    }
                  }
                }
                JOINT l_shoulder
                {
                  OFFSET 1.26863 -7.82717 7.75148
                  CHANNELS 6 Xposition Yposition Zposition Zrotation Xrotation Yrotation
                  JOINT l_up_arm
                  {
                    OFFSET 13.3291 3.34342 -3.36319
                    CHANNELS 6 Xposition Yposition Zposition Zrotation Xrotation Yrotation
                    JOINT l_low_arm
                    {
                      OFFSET 30.0522 0.0615366 0.141
                      CHANNELS 6 Xposition Yposition Zposition Zrotation Xrotation Yrotation
                      JOINT l_hand
                      {
                        OFFSET 24.9344 0.0510561 0.116988
                        CHANNELS 6 Xposition Yposition Zposition Zrotation Xrotation Yrotation
                        End Site
                        {
                          OFFSET 0.1 0 0
                        }
                      }
                    }
                  }
                }
                JOINT r_shoulder
                {
                  OFFSET -1.26863 -7.82715 7.75138
                  CHANNELS 6 Xposition Yposition Zposition Zrotation Xrotation Yrotation
                  JOINT r_up_arm
                  {
                    OFFSET -13.3291 3.34342 -3.36319
                    CHANNELS 6 Xposition Yposition Zposition Zrotation Xrotation Yrotation
                    JOINT r_low_arm
                    {
                      OFFSET -30.0522 0.0615366 0.141
                      CHANNELS 6 Xposition Yposition Zposition Zrotation Xrotation Yrotation
                      JOINT r_hand
                      {
                        OFFSET -24.9344 0.0510559 0.116988
                        CHANNELS 6 Xposition Yposition Zposition Zrotation Xrotation Yrotation
                        End Site
                        {
                          OFFSET -0.1 0 0
                        }
                      }
                    }
                  }
                }
              }
            }
          }
        }
      }
    }
  }
  JOINT l_up_leg
  {
    OFFSET 9.50369 -4.32711 2.09145
    CHANNELS 6 Xposition Yposition Zposition Zrotation Xrotation Yrotation
    JOINT l_low_leg
    {
      OFFSET -0.876987 -39.8926 -0.674123
      CHANNELS 6 Xposition Yposition Zposition Zrotation Xrotation Yrotation
      JOINT l_foot
      {
        OFFSET -2.39345 -41.5694 -6.22357
        CHANNELS 6 Xposition Yposition Zposition Zrotation Xrotation Yrotation
        JOINT l_toes
        {
          OFFSET 0.801613 -10.1701 12.8571
          CHANNELS 6 Xposition Yposition Zposition Zrotation Xrotation Yrotation
          End Site
          {
            OFFSET 0 0 0.1
          }
        }
      }
    }
  }
  JOINT r_up_leg
  {
    OFFSET -9.50369 -4.32711 2.09145
    CHANNELS 6 Xposition Yposition Zposition Zrotation Xrotation Yrotation
    JOINT r_low_leg
    {
      OFFSET 0.876987 -39.8926 -0.674123
      CHANNELS 6 Xposition Yposition Zposition Zrotation Xrotation Yrotation
      JOINT r_foot
      {
        OFFSET 2.39345 -41.5694 -6.22357
        CHANNELS 6 Xposition Yposition Zposition Zrotation Xrotation Yrotation
        JOINT r_toes
        {
          OFFSET -0.801613 -10.1701 12.8571
          CHANNELS 6 Xposition Yposition Zposition Zrotation Xrotation Yrotation
          End Site
          {
            OFFSET 0 0 0.1
          }
        }
      }
    }
  }
}
MOTION
Frames: 8
Frame Time: 0.016667
0 95.9893 0 -0 0 -0 0 5.22546 -1.18466 -0 0 -0 0 5.77894 1.10239 -0 0 -0 -1.0557e-17 6.16289 0.118334 -0 0 -0 -1.13649e-17 6.69386 -0.456341 -0 0 -0 -2.02997e-17 7.82529 -1.54945 -0 0 -0 -2.60628e-17 9.77186 -0.940923 -0 0 -0 -2.98794e-17 10.8563 1.62248 -0 0 -0 -1.32927e-17 4.92478 0.736013 -0 0 -0 -1.86396e-17 4.96043 0.433981 -0 0 -0 -2.06766e-17 4.97002 0.787173 -0 0 -0 1.26863 -7.82717 7.75148 -0 0 -0 13.3291 3.34342 -3.36319 -0 0 -0 30.0522 0.0615366 0.141 -0 0 -0 24.9344 0.0510561 0.116988 -0 0 -0 -1.26863 -7.82715 7.75138 -0 0 -0 -13.3291 3.34342 -3.36319 -0 0 -0 -30.0522 0.0615366 0.141 -0 0 -0 -24.9344 0.0510559 0.116988 -0 0 -0 9.50369 -4.32711 2.09145 -0 0 -0 -0.876987 -39.8926 -0.674123 -0 0 -0 -2.39345 -41.5694 -6.22357 -0 0 -0 0.801613 -10.1701 12.8571 -0 0 -0 -9.50369 -4.32711 2.09145 -0 0 -0 0.876987 -39.8926 -0.674123 -0 0 -0 2.39345 -41.5694 -6.22357 -0 0 -0 -0.801613 -10.1701 12.8571 -0 0 -0 
-27.4799 95.729 171.382 -1.7276 4.41796 -1.74714 0 5.22546 -1.18466 0.115835 0.90953 0.263203 0 5.77894 1.10239 0.237748 0.998895 0.22154 -1.0557e-17 6.16289 0.118334 0.254618 1.32729 0.335095 -1.13649e-17 6.69386 -0.456341 0.277722 1.59197 0.362167 -2.02997e-17 7.82529 -1.54945 0.394848 1.31147 0.278515 -2.60628e-17 9.77186 -0.940923 0.569317 1.08906 -0.0683526 -2.98794e-17 10.8563 1.62248 0.0120082 0.761507 0.000437714 -1.32927e-17 4.92478 0.736013 0.982734 -3.20879 2.18777 -1.86396e-17 4.96043 0.433981 0.933599 -3.53344 0.903922 -2.06766e-17 4.97002 0.787173 -0.577046 -1.11237 3.44836 1.26863 -7.82717 7.75148 -1.29035 3.75632 -1.74339 13.3291 3.34342 -3.36319 -81.675 18.8158 -4.51297 30.0522 0.0615366 0.141 2.01506 -0.161514 -9.75532 24.9344 0.0510561 0.116988 -0.090392 -24.6093 -4.41728 -1.26863 -7.82715 7.75138 2.94286 4.49676 1.48821 -13.3291 3.34342 -3.36319 75.8733 18.5518 7.48852 -30.0522 0.0615366 0.141 -2.41054 -0.234145 11.6913 -24.9344 0.0510559 0.116988 1.96533 -20.7713 5.8186 9.50369 -4.32711 2.09145 5.52517 -6.91582 -11.4905 -0.876987 -39.8926 -0.674123 -1.12892 4.21549 -0.0320597 -2.39345 -41.5694 -6.22357 -1.0391 -3.91953 15.6046 0.801613 -10.1701 12.8571 1.15886e-16 -6.67877e-16 -1.98141e-16 -9.50369 -4.32711 2.09145 -0.898481 -6.70872 21.0337 0.876987 -39.8926 -0.674123 0.633126 2.36452 0.0282103 2.39345 -41.5694 -6.22357 1.19883 -1.0334 -15.3182 -0.801613 -10.1701 12.8571 -6.00124e-16 -3.85884e-16 -1.25795e-14 
-27.4521 95.7252 171.408 -1.7275 4.44574 -1.73858 0 5.22546 -1.18466 0.112259 0.922431 0.258028 0 5.77894 1.10239 0.236765 1.00528 0.216081 -1.0557e-17 6.16289 0.118334 0.254651 1.32431 0.329828 -1.13649e-17 6.69386 -0.456341 0.278963 1.57429 0.356815 -2.02997e-17 7.82529 -1.54945 0.395234 1.28969 0.273347 -2.60628e-17 9.77186 -0.940923 0.567742 1.05929 -0.0741659 -2.98794e-17 10.8563 1.62248 0.0113657 0.763742 0.00190661 -1.32927e-17 4.92478 0.736013 0.978529 -3.2331 2.19735 -1.86396e-17 4.96043 0.433981 0.891519 -3.4463 0.905968 -2.06766e-17 4.97002 0.787173 -0.552029 -1.1159 3.37417 1.26863 -7.82717 7.75148 -1.23068 3.78188 -1.73818 13.3291 3.34342 -3.36319 -81.7168 18.9284 -4.52859 30.0522 0.0615366 0.141 2.01673 -0.161792 -9.76348 24.9344 0.0510561 0.116988 -0.10216 -24.6863 -4.44507 -1.26863 -7.82715 7.75138 2.96914 4.53648 1.51084 -13.3291 3.34342 -3.36319 75.8233 18.6235 7.51397 -30.0522 0.0615366 0.141 -2.41313 -0.234666 11.704 -24.9344 0.0510559 0.116988 1.952 -20.84 5.79171 9.50369 -4.32711 2.09145 5.51302 -7.06947 -11.5726 -0.876987 -39.8926 -0.674123 -1.198 4.4731 -0.0313226 -2.39345 -41.5694 -6.22357 -1.01219 -3.98757 15.6084 0.801613 -10.1701 12.8571 1.15886e-16 -6.67877e-16 -1.98141e-16 -9.50369 -4.32711 2.09145 -0.911587 -6.79252 20.9437 0.876987 -39.8926 -0.674123 0.672259 2.5107 0.0290973 2.39345 -41.5694 -6.22357 1.19838 -1.09635 -15.3247 -0.801613 -10.1701 12.8571 -6.00124e-16 -3.85884e-16 -1.25795e-14 
-27.4186 95.7181 171.442 -1.72462 4.45398 -1.75244 0 5.22546 -1.18466 0.106885 0.934544 0.259075 0 5.77894 1.10239 0.231968 1.01272 0.217446 -1.0557e-17 6.16289 0.118334 0.251221 1.3254 0.331507 -1.13649e-17 6.69386 -0.456341 0.276724 1.56555 0.359005 -2.02997e-17 7.82529 -1.54945 0.394584 1.27707 0.276032 -2.60628e-17 9.77186 -0.940923 0.568885 1.04239 -0.0722259 -2.98794e-17 10.8563 1.62248 0.0119723 0.766726 0.00378382 -1.32927e-17 4.92478 0.736013 0.970037 -3.26065 2.14079 -1.86396e-17 4.96043 0.433981 0.904464 -3.45052 0.879919 -2.06766e-17 4.97002 0.787173 -0.553322 -1.04807 3.38496 1.26863 -7.82717 7.75148 -1.22044 3.7972 -1.72463 13.3291 3.34342 -3.36319 -81.7043 19.0338 -4.55429 30.0522 0.0615366 0.141 2.01885 -0.162145 -9.77381 24.9344 0.0510561 0.116988 -0.140238 -24.7459 -4.48625 -1.26863 -7.82715 7.75138 2.99841 4.55609 1.50661 -13.3291 3.34342 -3.36319 75.7949 18.6293 7.49463 -30.0522 0.0615366 0.141 -2.41886 -0.235824 11.7322 -24.9344 0.0510559 0.116988 1.94571 -20.8217 5.75203 9.50369 -4.32711 2.09145 5.49113 -7.18393 -11.6869 -0.876987 -39.8926 -0.674123 -1.26109 4.70826 -0.0303775 -2.39345 -41.5694 -6.22357 -0.947901 -4.05743 15.6117 0.801613 -10.1701 12.8571 1.15886e-16 -6.67877e-16 -1.98141e-16 -9.50369 -4.32711 2.09145 -0.914058 -6.84125 20.8434 0.876987 -39.8926 -0.674123 0.703567 2.62765 0.0297349 2.39345 -41.5694 -6.22357 1.08984 -1.12598 -15.3179 -0.801613 -10.1701 12.8571 -7.00712e-16 -3.81538e-16 -1.25763e-14 
-27.3764 95.7134 171.486 -1.72012 4.42396 -1.78567 0 5.22546 -1.18466 0.0959248 0.970203 0.261753 0 5.77894 1.10239 0.22298 1.03638 0.218782 -1.0557e-17 6.16289 0.118334 0.244792 1.33594 0.332631 -1.13649e-17 6.69386 -0.456341 0.272442 1.55356 0.360208 -2.02997e-17 7.82529 -1.54945 0.393049 1.25334 0.277902 -2.60628e-17 9.77186 -0.940923 0.57004 1.01169 -0.0711998 -2.98794e-17 10.8563 1.62248 0.0122426 0.771299 0.00572543 -1.32927e-17 4.92478 0.736013 0.966961 -3.24908 2.1228 -1.86396e-17 4.96043 0.433981 0.905827 -3.43479 0.871562 -2.06766e-17 4.97002 0.787173 -0.54691 -1.02336 3.37173 1.26863 -7.82717 7.75148 -1.21465 3.82424 -1.72087 13.3291 3.34342 -3.36319 -81.7427 19.1461 -4.52521 30.0522 0.0615366 0.141 2.02808 -0.16369 -9.81892 24.9344 0.0510561 0.116988 -0.120729 -24.8508 -4.52386 -1.26863 -7.82715 7.75138 3.02958 4.59197 1.5139 -13.3291 3.34342 -3.36319 75.8089 18.6026 7.46673 -30.0522 0.0615366 0.141 -2.4163 -0.235307 11.7196 -24.9344 0.0510559 0.116988 1.90445 -20.7193 5.71715 9.50369 -4.32711 2.09145 5.4657 -7.23608 -11.7674 -0.876987 -39.8926 -0.674123 -1.31831 4.92149 -0.0292955 -2.39345 -41.5694 -6.22357 -0.910371 -4.12247 15.6155 0.801613 -10.1701 12.8571 1.53022e-17 -6.72223e-16 -1.91855e-16 -9.50369 -4.32711 2.09145 -0.922267 -6.83777 20.6902 0.876987 -39.8926 -0.674123 0.731079 2.73041 0.0302425 2.39345 -41.5694 -6.22357 1.02155 -1.15123 -15.3174 -0.801613 -10.1701 12.8571 -8.97109e-16 -3.73053e-16 -1.25702e-14 
-27.3257 95.7059 171.541 -1.69647 4.47554 -1.87711 0 5.22546 -1.18466 0.0872467 0.961861 0.271099 0 5.77894 1.10239 0.214189 1.0306 0.227567 -1.0557e-17 6.16289 0.118334 0.237617 1.33131 0.340973 -1.13649e-17 6.69386 -0.456341 0.266335 1.55156 0.368918 -2.02997e-17 7.82529 -1.54945 0.390266 1.2537 0.287627 -2.60628e-17 9.77186 -0.940923 0.571607 1.01244 -0.0619431 -2.98794e-17 10.8563 1.62248 0.0129244 0.772331 0.00753385 -1.32927e-17 4.92478 0.736013 0.964539 -3.2294 2.1273 -1.86396e-17 4.96043 0.433981 0.910045 -3.42648 0.873343 -2.06766e-17 4.97002 0.787173 -0.574075 -1.04714 3.36086 1.26863 -7.82717 7.75148 -1.17058 3.81237 -1.68159 13.3291 3.34342 -3.36319 -81.8037 19.2336 -4.51395 30.0522 0.0615366 0.141 2.03694 -0.16518 -9.86221 24.9344 0.0510561 0.116988 -0.157495 -24.9499 -4.57928 -1.26863 -7.82715 7.75138 3.04503 4.59786 1.49136 -13.3291 3.34342 -3.36319 75.8048 18.6095 7.48644 -30.0522 0.0615366 0.141 -2.4082 -0.233673 11.6798 -24.9344 0.0510559 0.116988 1.85611 -20.5968 5.66481 9.50369 -4.32711 2.09145 5.42273 -7.34068 -11.7849 -0.876987 -39.8926 -0.674123 -1.37082 5.11706 -0.0281149 -2.39345 -41.5694 -6.22357 -0.836354 -4.1924 15.6147 0.801613 -10.1701 12.8571 -2.81683e-16 -6.85054e-16 -1.73293e-16 -9.50369 -4.32711 2.09145 -0.93283 -6.9075 20.5427 0.876987 -39.8926 -0.674123 0.756125 2.82396 0.0306616 2.39345 -41.5694 -6.22357 0.863695 -1.17624 -15.3091 -0.801613 -10.1701 12.8571 -3.98955e-16 -3.94575e-16 -1.25889e-14 
-27.2661 95.6955 171.608 -1.6653 4.51705 -1.9929 0 5.22546 -1.18466 0.0725526 0.968287 0.281147 0 5.77894 1.10239 0.200057 1.03228 0.236141 -1.0557e-17 6.16289 0.118334 0.225922 1.32707 0.349223 -1.13649e-17 6.69386 -0.456341 0.256585 1.53721 0.377297 -2.02997e-17 7.82529 -1.54945 0.384751 1.23527 0.29744 -2.60628e-17 9.77186 -0.940923 0.571628 0.990448 -0.0522342 -2.98794e-17 10.8563 1.62248 0.0134197 0.774911 0.00954534 -1.32927e-17 4.92478 0.736013 0.96328 -3.25275 2.14299 -1.86396e-17 4.96043 0.433981 0.905657 -3.40311 0.879864 -2.06766e-17 4.97002 0.787173 -0.571709 -1.01315 3.36898 1.26863 -7.82717 7.75148 -1.15798 3.82608 -1.66307 13.3291 3.34342 -3.36319 -81.8781 19.2782 -4.4406 30.0522 0.0615366 0.141 2.05123 -0.167597 -9.93203 24.9344 0.0510561 0.116988 -0.15691 -25.0832 -4.62806 -1.26863 -7.82715 7.75138 3.07886 4.62771 1.48648 -13.3291 3.34342 -3.36319 75.8013 18.6131 7.46816 -30.0522 0.0615366 0.141 -2.40406 -0.23284 11.6595 -24.9344 0.0510559 0.116988 1.80617 -20.4589 5.59304 9.50369 -4.32711 2.09145 5.36995 -7.41309 -11.7775 -0.876987 -39.8926 -0.674123 -1.41863 5.29506 -0.0268835 -2.39345 -41.5694 -6.22357 -0.773712 -4.27574 15.6154 0.801613 -10.1701 12.8571 -1.81099e-16 -6.80708e-16 -1.7958e-16 -9.50369 -4.32711 2.09145 -0.963359 -6.95948 20.4296 0.876987 -39.8926 -0.674123 0.779557 2.91147 0.0310167 2.39345 -41.5694 -6.22357 0.779526 -1.23853 -15.3099 -0.801613 -10.1701 12.8571 -6.15384e-18 -4.11546e-16 -1.26073e-14 
-27.1997 95.6827 171.686 -1.65612 4.49805 -2.08568 0 5.22546 -1.18466 0.063704 0.984832 0.291307 0 5.77894 1.10239 0.190651 1.04232 0.245475 -1.0557e-17 6.16289 0.118334 0.217602 1.33013 0.358153 -1.13649e-17 6.69386 -0.456341 0.24888 1.52853 0.386424 -2.02997e-17 7.82529 -1.54945 0.379899 1.2207 0.307753 -2.60628e-17 9.77186 -0.940923 0.571029 0.972643 -0.041538 -2.98794e-17 10.8563 1.62248 0.0137755 0.777607 0.0117166 -1.32927e-17 4.92478 0.736013 0.959107 -3.26377 2.14874 -1.86396e-17 4.96043 0.433981 0.898528 -3.39714 0.882119 -2.06766e-17 4.97002 0.787173 -0.554516 -0.973391 3.36894 1.26863 -7.82717 7.75148 -1.14877 3.83604 -1.64348 13.3291 3.34342 -3.36319 -81.9356 19.3361 -4.38527 30.0522 0.0615366 0.141 2.06132 -0.169313 -9.9813 24.9344 0.0510561 0.116988 -0.17935 -25.225 -4.66889 -1.26863 -7.82715 7.75138 3.09945 4.65396 1.47566 -13.3291 3.34342 -3.36319 75.7894 18.6055 7.44283 -30.0522 0.0615366 0.141 -2.39384 -0.23079 11.6093 -24.9344 0.0510559 0.116988 1.79695 -20.3447 5.54768 9.50369 -4.32711 2.09145 5.33041 -7.44015 -11.8129 -0.876987 -39.8926 -0.674123 -1.47666 5.51104 -0.0251885 -2.39345 -41.5694 -6.22357 -0.714049 -4.38451 15.619 0.801613 -10.1701 12.8571 1.53022e-17 -6.72223e-16 -1.91855e-16 -9.50369 -4.32711 2.09145 -0.982872 -6.93968 20.3041 0.876987 -39.8926 -0.674123 0.802636 2.99767 0.0313314 2.39345 -41.5694 -6.22357 0.684572 -1.29308 -15.3055 -0.801613 -10.1701 12.8571 -4.9954e-16 -3.9023e-16 -1.25826e-14 
